<?xml version="1.0" encoding="utf-8"?>
<!-- Generator: Adobe Illustrator 16.0.0, SVG Export Plug-In . SVG Version: 6.00 Build 0)  -->
<!DOCTYPE svg PUBLIC "-//W3C//DTD SVG 1.1//EN" "http://www.w3.org/Graphics/SVG/1.1/DTD/svg11.dtd">
<svg version="1.1" id="Layer_1" xmlns="http://www.w3.org/2000/svg" xmlns:xlink="http://www.w3.org/1999/xlink" x="0px" y="0px"
	 width="100px" height="100px" viewBox="0 0 100 100" enable-background="new 0 0 100 100" xml:space="preserve">
<g>
	<g>
		<g>
			<path fill="#FFFFFF" d="M43.188,58.854c-6.249,0-11.333-5.866-11.333-13.078c0-7.211,5.084-13.076,11.333-13.076
				c6.251,0,11.335,5.865,11.335,13.076C54.523,52.988,49.439,58.854,43.188,58.854z M43.188,35.607
				c-4.646,0-8.424,4.562-8.424,10.169c0,5.608,3.778,10.171,8.424,10.171c4.647,0,8.427-4.562,8.427-10.171
				C51.615,40.168,47.835,35.607,43.188,35.607z"/>
			<rect x="5.119" y="34.153" fill="#FFFFFF" width="2.908" height="23.245"/>
			<polygon fill="#FFFFFF" points="73.084,57.398 81.385,37.87 89.686,57.398 92.845,57.398 82.965,34.153 82.965,34.153 
				79.805,34.153 79.805,34.153 69.926,57.398 			"/>
			<polygon fill="#FFFFFF" points="63.239,57.398 66.398,57.398 66.398,57.398 76.279,34.153 73.119,34.153 64.82,53.683 
				56.518,34.153 53.361,34.153 63.239,57.398 			"/>
			<path fill="#FFFFFF" d="M26.624,34.153v17.361L17.49,34.153h-3.287l12.231,23.245h3.096v-0.356v-0.948v-21.94H26.624z
				 M10.349,34.153v0.36v0.095v22.79h2.91v-17.36l9.132,17.36h3.285L13.447,34.153H10.349z"/>
		</g>
		<g>
			<path fill="#FFFFFF" d="M22.385,60.548v-0.226h3.22v0.226h-1.484v3.979h-0.259v-3.979H22.385z"/>
			<path fill="#FFFFFF" d="M25.37,63.045v0.036c0,0.176,0.023,0.344,0.071,0.506s0.117,0.304,0.209,0.422
				c0.093,0.123,0.209,0.218,0.348,0.289c0.141,0.072,0.303,0.106,0.488,0.106c0.303,0,0.544-0.08,0.72-0.239
				c0.178-0.158,0.3-0.378,0.367-0.662h0.223c-0.067,0.353-0.21,0.623-0.431,0.812c-0.222,0.188-0.516,0.284-0.882,0.284
				c-0.224,0-0.418-0.042-0.583-0.122c-0.168-0.08-0.309-0.191-0.419-0.329c-0.112-0.14-0.196-0.304-0.25-0.496
				c-0.055-0.188-0.082-0.395-0.082-0.613c0-0.213,0.027-0.416,0.084-0.609c0.058-0.195,0.144-0.367,0.257-0.514
				c0.113-0.148,0.256-0.264,0.425-0.351c0.172-0.092,0.372-0.135,0.604-0.135c0.212,0,0.401,0.038,0.563,0.118
				c0.162,0.079,0.299,0.186,0.41,0.321c0.108,0.136,0.192,0.294,0.248,0.471c0.058,0.181,0.088,0.369,0.088,0.575
				c0,0.019-0.002,0.04-0.004,0.066c-0.001,0.027-0.004,0.046-0.004,0.062H25.37z M27.594,62.851
				c-0.006-0.166-0.035-0.322-0.082-0.468c-0.048-0.148-0.118-0.275-0.209-0.389c-0.092-0.111-0.205-0.203-0.337-0.269
				c-0.133-0.065-0.282-0.1-0.452-0.1c-0.182,0-0.34,0.034-0.478,0.103c-0.138,0.068-0.254,0.159-0.35,0.271
				c-0.093,0.11-0.166,0.243-0.217,0.392c-0.051,0.147-0.083,0.302-0.095,0.459H27.594z"/>
			<path fill="#FFFFFF" d="M30.622,62.438c-0.012-0.135-0.046-0.252-0.104-0.354c-0.056-0.102-0.129-0.188-0.221-0.254
				c-0.091-0.067-0.194-0.119-0.314-0.152c-0.12-0.038-0.249-0.053-0.387-0.053c-0.187,0-0.354,0.037-0.5,0.113
				c-0.146,0.075-0.266,0.181-0.364,0.306c-0.099,0.128-0.173,0.273-0.224,0.438c-0.051,0.161-0.077,0.328-0.077,0.503
				c0,0.203,0.023,0.392,0.07,0.563c0.047,0.173,0.12,0.321,0.217,0.451c0.098,0.126,0.221,0.226,0.366,0.297
				c0.143,0.072,0.316,0.106,0.51,0.106c0.141,0,0.272-0.023,0.393-0.071c0.119-0.047,0.224-0.112,0.318-0.193
				c0.091-0.083,0.168-0.182,0.226-0.299c0.059-0.113,0.098-0.241,0.118-0.379h0.224c-0.023,0.182-0.072,0.342-0.146,0.482
				c-0.075,0.142-0.168,0.261-0.284,0.358c-0.112,0.095-0.243,0.17-0.387,0.221c-0.146,0.05-0.298,0.076-0.461,0.076
				c-0.246,0-0.457-0.045-0.631-0.132c-0.176-0.088-0.319-0.209-0.43-0.357c-0.112-0.148-0.195-0.32-0.247-0.516
				c-0.054-0.194-0.081-0.397-0.081-0.608c0-0.21,0.031-0.415,0.092-0.603c0.061-0.188,0.15-0.352,0.269-0.495
				c0.117-0.141,0.263-0.252,0.434-0.334c0.174-0.084,0.372-0.124,0.595-0.124c0.167,0,0.321,0.021,0.463,0.062
				c0.144,0.041,0.271,0.104,0.383,0.187c0.111,0.082,0.204,0.188,0.273,0.315c0.072,0.129,0.115,0.274,0.131,0.444H30.622z"/>
			<path fill="#FFFFFF" d="M31.397,61.502h0.224v0.646h0.012c0.041-0.111,0.095-0.214,0.169-0.302
				c0.071-0.091,0.156-0.165,0.252-0.229c0.096-0.062,0.201-0.109,0.315-0.139c0.114-0.032,0.23-0.048,0.347-0.048
				c0.176,0,0.327,0.021,0.45,0.064s0.225,0.101,0.304,0.171c0.078,0.07,0.14,0.148,0.185,0.239
				c0.045,0.089,0.078,0.176,0.098,0.268c0.019,0.092,0.03,0.178,0.035,0.263c0.002,0.086,0.006,0.159,0.006,0.22v1.872H33.57
				v-1.912c0-0.076-0.005-0.169-0.018-0.283c-0.012-0.113-0.047-0.224-0.103-0.326c-0.058-0.106-0.144-0.194-0.259-0.27
				c-0.115-0.073-0.276-0.11-0.479-0.11c-0.174,0-0.328,0.029-0.46,0.092c-0.132,0.064-0.249,0.152-0.342,0.265
				c-0.094,0.111-0.166,0.244-0.215,0.4c-0.049,0.155-0.074,0.326-0.074,0.508v1.637h-0.224V61.502z"/>
			<path fill="#FFFFFF" d="M34.312,63.016c0-0.217,0.03-0.42,0.091-0.61c0.061-0.192,0.15-0.36,0.268-0.504
				c0.118-0.146,0.263-0.261,0.436-0.344c0.173-0.085,0.37-0.127,0.595-0.127c0.224,0,0.421,0.042,0.595,0.127
				c0.171,0.083,0.318,0.198,0.435,0.344c0.118,0.144,0.207,0.312,0.268,0.504c0.061,0.19,0.092,0.394,0.092,0.61
				c0,0.214-0.031,0.42-0.092,0.612c-0.061,0.191-0.15,0.359-0.268,0.502c-0.117,0.143-0.264,0.257-0.435,0.343
				c-0.174,0.085-0.371,0.127-0.595,0.127c-0.225,0-0.422-0.042-0.595-0.127c-0.173-0.086-0.318-0.2-0.436-0.343
				c-0.118-0.143-0.207-0.311-0.268-0.502C34.342,63.436,34.312,63.229,34.312,63.016z M34.536,63.016
				c0,0.179,0.026,0.352,0.077,0.52s0.126,0.315,0.224,0.444c0.098,0.131,0.221,0.233,0.365,0.307
				c0.145,0.079,0.312,0.118,0.5,0.118c0.188,0,0.354-0.039,0.5-0.118c0.146-0.073,0.267-0.176,0.366-0.307
				c0.098-0.129,0.172-0.276,0.224-0.444c0.05-0.168,0.077-0.341,0.077-0.52c0-0.182-0.027-0.357-0.077-0.522
				c-0.051-0.168-0.126-0.313-0.224-0.443c-0.099-0.129-0.22-0.235-0.366-0.311c-0.146-0.076-0.312-0.113-0.5-0.113
				c-0.188,0-0.356,0.037-0.5,0.113c-0.144,0.075-0.267,0.182-0.365,0.311c-0.097,0.13-0.173,0.275-0.224,0.443
				C34.562,62.658,34.536,62.834,34.536,63.016z"/>
			<path fill="#FFFFFF" d="M37.892,60.322v4.205h-0.223v-4.205H37.892z"/>
			<path fill="#FFFFFF" d="M38.464,63.016c0-0.217,0.03-0.42,0.091-0.61c0.062-0.192,0.151-0.36,0.267-0.504
				c0.119-0.146,0.263-0.261,0.436-0.344c0.173-0.085,0.373-0.127,0.595-0.127c0.224,0,0.421,0.042,0.595,0.127
				c0.173,0.083,0.317,0.198,0.436,0.344c0.117,0.144,0.206,0.312,0.267,0.504c0.061,0.19,0.091,0.394,0.091,0.61
				c0,0.214-0.03,0.42-0.091,0.612c-0.061,0.191-0.15,0.359-0.267,0.502c-0.119,0.143-0.263,0.257-0.436,0.343
				c-0.173,0.085-0.371,0.127-0.595,0.127c-0.223,0-0.422-0.042-0.595-0.127c-0.173-0.086-0.317-0.2-0.436-0.343
				c-0.116-0.143-0.205-0.311-0.267-0.502C38.494,63.436,38.464,63.229,38.464,63.016z M38.688,63.016
				c0,0.179,0.025,0.352,0.076,0.52c0.051,0.168,0.125,0.315,0.225,0.444c0.097,0.131,0.219,0.233,0.364,0.307
				c0.145,0.079,0.314,0.118,0.501,0.118c0.188,0,0.354-0.039,0.501-0.118c0.145-0.073,0.267-0.176,0.364-0.307
				c0.099-0.129,0.172-0.276,0.225-0.444c0.05-0.168,0.075-0.341,0.075-0.52c0-0.182-0.025-0.357-0.075-0.522
				c-0.052-0.168-0.125-0.313-0.225-0.443c-0.097-0.129-0.219-0.235-0.364-0.311c-0.146-0.076-0.313-0.113-0.501-0.113
				c-0.187,0-0.356,0.037-0.501,0.113c-0.145,0.075-0.267,0.182-0.364,0.311c-0.1,0.13-0.173,0.275-0.225,0.443
				C38.713,62.658,38.688,62.834,38.688,63.016z"/>
			<path fill="#FFFFFF" d="M44.263,61.502v2.868c0,0.166-0.019,0.331-0.06,0.492c-0.039,0.157-0.106,0.298-0.202,0.42
				c-0.096,0.122-0.228,0.218-0.396,0.29c-0.168,0.076-0.382,0.109-0.64,0.109c-0.16,0-0.312-0.015-0.454-0.052
				c-0.141-0.032-0.264-0.084-0.369-0.157c-0.106-0.071-0.191-0.17-0.256-0.288c-0.065-0.119-0.101-0.268-0.108-0.445h0.225
				c0.012,0.135,0.044,0.248,0.099,0.341c0.054,0.095,0.125,0.173,0.215,0.233c0.088,0.06,0.186,0.104,0.297,0.133
				c0.11,0.028,0.228,0.043,0.353,0.043c0.209,0,0.383-0.033,0.522-0.096c0.138-0.064,0.25-0.145,0.332-0.244
				c0.083-0.103,0.14-0.214,0.173-0.343c0.034-0.128,0.05-0.255,0.05-0.385v-0.693h-0.018c-0.104,0.225-0.25,0.393-0.431,0.511
				c-0.182,0.12-0.403,0.177-0.661,0.177c-0.224,0-0.416-0.036-0.58-0.113c-0.161-0.078-0.298-0.183-0.404-0.318
				c-0.11-0.138-0.189-0.295-0.241-0.474c-0.053-0.182-0.078-0.379-0.078-0.59c0-0.201,0.027-0.391,0.085-0.57
				c0.056-0.181,0.139-0.341,0.249-0.476c0.109-0.136,0.247-0.243,0.41-0.323c0.163-0.083,0.351-0.121,0.562-0.121
				c0.239,0,0.459,0.062,0.662,0.184c0.202,0.12,0.347,0.293,0.432,0.518h0.013v-0.63H44.263z M42.938,61.626
				c-0.185,0-0.344,0.037-0.479,0.11c-0.136,0.075-0.25,0.171-0.337,0.296c-0.087,0.121-0.154,0.26-0.2,0.415
				c-0.045,0.154-0.068,0.312-0.068,0.474c0,0.176,0.022,0.344,0.068,0.504s0.113,0.298,0.206,0.414
				c0.091,0.119,0.207,0.212,0.34,0.281c0.136,0.068,0.292,0.101,0.469,0.101c0.184,0,0.347-0.035,0.484-0.105
				c0.136-0.07,0.252-0.168,0.342-0.287c0.093-0.122,0.163-0.263,0.206-0.415c0.045-0.156,0.069-0.32,0.069-0.492
				c0-0.169-0.023-0.332-0.069-0.488c-0.043-0.156-0.113-0.295-0.206-0.415c-0.09-0.121-0.206-0.216-0.342-0.286
				C43.284,61.66,43.122,61.626,42.938,61.626z"/>
			<path fill="#FFFFFF" d="M45.652,60.229h0.3l-0.789,0.824h-0.218L45.652,60.229z M44.981,64.527v-3.025h0.224v3.025H44.981z"/>
			<path fill="#FFFFFF" d="M47.924,63.929h-0.012c-0.034,0.089-0.085,0.173-0.152,0.254c-0.067,0.084-0.148,0.153-0.244,0.218
				c-0.096,0.062-0.206,0.109-0.328,0.145c-0.12,0.036-0.254,0.055-0.401,0.055c-0.32,0-0.57-0.07-0.747-0.21
				c-0.175-0.139-0.263-0.355-0.263-0.644c0-0.179,0.036-0.321,0.104-0.433c0.072-0.114,0.161-0.201,0.267-0.266
				c0.11-0.065,0.228-0.11,0.36-0.141c0.131-0.027,0.258-0.044,0.38-0.057l0.348-0.031c0.16-0.01,0.287-0.029,0.379-0.056
				c0.093-0.024,0.161-0.06,0.209-0.106c0.048-0.043,0.076-0.101,0.087-0.173c0.012-0.071,0.019-0.159,0.019-0.264
				c0-0.083-0.016-0.159-0.048-0.229c-0.031-0.07-0.079-0.135-0.146-0.189c-0.067-0.055-0.153-0.098-0.259-0.131
				c-0.107-0.03-0.236-0.045-0.39-0.045c-0.27,0-0.489,0.064-0.655,0.199c-0.168,0.136-0.258,0.337-0.274,0.607h-0.224
				c0.015-0.333,0.122-0.585,0.321-0.751c0.198-0.167,0.48-0.251,0.845-0.251c0.364,0,0.631,0.071,0.797,0.214
				c0.166,0.146,0.25,0.333,0.25,0.563v1.761c0,0.043,0,0.087,0.003,0.13c0.002,0.043,0.008,0.082,0.02,0.116
				c0.012,0.038,0.031,0.065,0.059,0.088c0.028,0.021,0.067,0.03,0.118,0.03c0.04,0,0.094-0.006,0.166-0.018v0.188
				c-0.061,0.016-0.121,0.023-0.183,0.023c-0.09,0-0.164-0.011-0.214-0.033c-0.053-0.023-0.093-0.056-0.121-0.094
				c-0.027-0.041-0.046-0.087-0.056-0.141c-0.011-0.053-0.016-0.111-0.016-0.174V63.929z M47.924,62.81
				c-0.054,0.065-0.138,0.111-0.249,0.135c-0.113,0.022-0.237,0.042-0.375,0.054l-0.376,0.033c-0.11,0.014-0.22,0.029-0.329,0.052
				c-0.11,0.021-0.21,0.057-0.298,0.107c-0.087,0.053-0.16,0.123-0.215,0.21c-0.055,0.089-0.083,0.203-0.083,0.346
				c0,0.223,0.072,0.388,0.212,0.496c0.142,0.109,0.334,0.162,0.584,0.162c0.255,0,0.455-0.045,0.605-0.138
				c0.149-0.093,0.263-0.199,0.341-0.319c0.078-0.119,0.128-0.235,0.151-0.348c0.019-0.11,0.03-0.186,0.03-0.227V62.81z"/>
			<path fill="#FFFFFF" d="M48.966,63.522c0.008,0.14,0.04,0.265,0.095,0.374c0.055,0.106,0.126,0.202,0.216,0.275
				c0.086,0.076,0.189,0.135,0.308,0.174c0.118,0.038,0.245,0.059,0.383,0.059c0.098,0,0.205-0.008,0.316-0.024
				c0.112-0.021,0.214-0.053,0.311-0.1c0.099-0.046,0.177-0.111,0.24-0.197c0.062-0.082,0.093-0.19,0.093-0.32
				c0-0.168-0.05-0.295-0.152-0.384c-0.104-0.087-0.23-0.152-0.385-0.198c-0.157-0.049-0.322-0.085-0.501-0.116
				c-0.178-0.028-0.346-0.073-0.5-0.131c-0.156-0.059-0.283-0.144-0.386-0.252c-0.103-0.105-0.153-0.268-0.153-0.474
				c0-0.149,0.034-0.273,0.102-0.374c0.065-0.1,0.15-0.182,0.253-0.238c0.105-0.06,0.222-0.103,0.353-0.127
				c0.128-0.025,0.259-0.038,0.387-0.038c0.159,0,0.305,0.017,0.441,0.052c0.138,0.037,0.257,0.094,0.357,0.17
				c0.1,0.081,0.178,0.182,0.236,0.303c0.056,0.122,0.085,0.269,0.085,0.442h-0.224c0-0.139-0.024-0.255-0.067-0.354
				c-0.046-0.098-0.109-0.177-0.19-0.238c-0.081-0.062-0.175-0.106-0.285-0.136c-0.109-0.03-0.228-0.043-0.354-0.043
				c-0.102,0-0.206,0.009-0.308,0.026c-0.104,0.02-0.197,0.054-0.28,0.101c-0.082,0.049-0.151,0.108-0.203,0.185
				c-0.053,0.074-0.08,0.165-0.08,0.271c0,0.122,0.029,0.22,0.087,0.295c0.06,0.074,0.138,0.136,0.234,0.179
				c0.095,0.046,0.203,0.082,0.323,0.109c0.12,0.028,0.239,0.055,0.363,0.084c0.149,0.026,0.289,0.059,0.42,0.095
				c0.131,0.04,0.246,0.091,0.341,0.154c0.098,0.065,0.173,0.148,0.228,0.249c0.055,0.104,0.082,0.232,0.082,0.39
				c0,0.166-0.038,0.301-0.111,0.406c-0.075,0.106-0.168,0.19-0.284,0.256c-0.112,0.066-0.239,0.108-0.38,0.137
				c-0.138,0.025-0.274,0.038-0.409,0.038c-0.173,0-0.332-0.024-0.479-0.067c-0.147-0.044-0.276-0.116-0.386-0.208
				c-0.11-0.09-0.196-0.203-0.259-0.337c-0.063-0.133-0.096-0.292-0.1-0.465H48.966z"/>
			<path fill="#FFFFFF" d="M55.667,63.88h-0.011c-0.127,0.241-0.285,0.42-0.472,0.539c-0.19,0.12-0.42,0.181-0.69,0.181
				c-0.228,0-0.423-0.045-0.588-0.129c-0.164-0.088-0.3-0.204-0.404-0.35c-0.108-0.145-0.187-0.312-0.237-0.504
				c-0.052-0.188-0.076-0.389-0.076-0.597c0-0.223,0.026-0.432,0.081-0.625c0.055-0.195,0.14-0.363,0.251-0.507
				c0.112-0.141,0.253-0.252,0.422-0.334c0.168-0.084,0.367-0.124,0.595-0.124c0.121,0,0.239,0.017,0.357,0.049
				c0.12,0.035,0.229,0.082,0.329,0.146c0.1,0.062,0.186,0.139,0.26,0.233c0.075,0.096,0.133,0.202,0.173,0.32h0.011v-1.857h0.223
				v4.205h-0.223V63.88z M54.543,64.404c0.191,0,0.357-0.039,0.496-0.118c0.14-0.077,0.256-0.185,0.349-0.312
				c0.092-0.13,0.16-0.278,0.206-0.445c0.044-0.165,0.067-0.336,0.067-0.509c0-0.176-0.023-0.349-0.067-0.515
				c-0.046-0.167-0.113-0.316-0.203-0.447c-0.092-0.13-0.208-0.238-0.352-0.317c-0.143-0.077-0.31-0.115-0.502-0.115
				c-0.2,0-0.371,0.037-0.513,0.113c-0.141,0.075-0.259,0.182-0.35,0.311c-0.095,0.13-0.159,0.277-0.202,0.447
				c-0.04,0.168-0.061,0.342-0.061,0.523c0,0.177,0.022,0.347,0.066,0.515c0.046,0.168,0.115,0.315,0.206,0.444
				c0.092,0.131,0.211,0.233,0.35,0.307C54.178,64.365,54.346,64.404,54.543,64.404z"/>
			<path fill="#FFFFFF" d="M56.685,63.045v0.036c0,0.176,0.023,0.344,0.071,0.506c0.047,0.162,0.117,0.304,0.209,0.422
				c0.094,0.123,0.209,0.218,0.35,0.289c0.139,0.072,0.303,0.106,0.486,0.106c0.304,0,0.543-0.08,0.72-0.239
				c0.178-0.158,0.3-0.378,0.367-0.662h0.223c-0.067,0.353-0.211,0.623-0.434,0.812c-0.22,0.188-0.514,0.284-0.881,0.284
				c-0.222,0-0.417-0.042-0.584-0.122c-0.168-0.08-0.305-0.191-0.418-0.329c-0.111-0.14-0.195-0.304-0.25-0.496
				c-0.054-0.188-0.083-0.395-0.083-0.613c0-0.213,0.029-0.416,0.086-0.609c0.058-0.195,0.144-0.367,0.256-0.514
				c0.113-0.148,0.257-0.264,0.427-0.351c0.172-0.092,0.371-0.135,0.603-0.135c0.214,0,0.4,0.038,0.563,0.118
				c0.162,0.079,0.3,0.186,0.41,0.321c0.109,0.136,0.191,0.294,0.25,0.471c0.055,0.181,0.085,0.369,0.085,0.575
				c0,0.019,0,0.04-0.003,0.066c-0.002,0.027-0.003,0.046-0.003,0.062H56.685z M58.91,62.851c-0.008-0.166-0.035-0.322-0.082-0.468
				c-0.048-0.148-0.118-0.275-0.209-0.389c-0.092-0.111-0.205-0.203-0.337-0.269c-0.133-0.065-0.283-0.1-0.453-0.1
				c-0.181,0-0.34,0.034-0.477,0.103c-0.138,0.068-0.255,0.159-0.348,0.271c-0.095,0.11-0.168,0.243-0.22,0.392
				c-0.05,0.147-0.081,0.302-0.094,0.459H58.91z"/>
			<path fill="#FFFFFF" d="M59.935,60.322v4.205h-0.223v-4.205H59.935z"/>
			<path fill="#FFFFFF" d="M63.574,60.322h0.282l1.659,4.205h-0.276l-0.528-1.347h-2.015l-0.535,1.347h-0.277L63.574,60.322z
				 M64.627,62.955l-0.899-2.38h-0.014l-0.935,2.38H64.627z"/>
			<path fill="#FFFFFF" d="M68.272,61.502v2.868c0,0.166-0.021,0.331-0.06,0.492c-0.04,0.157-0.107,0.298-0.202,0.42
				c-0.096,0.122-0.229,0.218-0.396,0.29c-0.168,0.076-0.382,0.109-0.641,0.109c-0.161,0-0.311-0.015-0.453-0.052
				c-0.14-0.032-0.264-0.084-0.369-0.157c-0.105-0.071-0.189-0.17-0.256-0.288c-0.064-0.119-0.102-0.268-0.109-0.445h0.225
				c0.014,0.135,0.046,0.248,0.1,0.341c0.055,0.095,0.127,0.173,0.215,0.233c0.09,0.06,0.188,0.104,0.298,0.133
				s0.229,0.043,0.354,0.043c0.209,0,0.381-0.033,0.521-0.096c0.139-0.064,0.25-0.145,0.333-0.244
				c0.082-0.103,0.139-0.214,0.174-0.343c0.032-0.128,0.05-0.255,0.05-0.385v-0.693h-0.02c-0.104,0.225-0.247,0.393-0.429,0.511
				c-0.182,0.12-0.403,0.177-0.662,0.177c-0.224,0-0.416-0.036-0.578-0.113c-0.163-0.078-0.299-0.183-0.404-0.318
				c-0.11-0.138-0.19-0.295-0.241-0.474c-0.055-0.182-0.081-0.379-0.081-0.59c0-0.201,0.029-0.391,0.085-0.57
				c0.059-0.181,0.142-0.341,0.251-0.476c0.11-0.136,0.247-0.243,0.409-0.323c0.162-0.083,0.352-0.121,0.562-0.121
				c0.238,0,0.461,0.062,0.662,0.184c0.203,0.12,0.346,0.293,0.433,0.518h0.013v-0.63H68.272z M66.947,61.626
				c-0.186,0-0.344,0.037-0.479,0.11c-0.136,0.075-0.249,0.171-0.337,0.296c-0.089,0.121-0.154,0.26-0.2,0.415
				c-0.045,0.154-0.067,0.312-0.067,0.474c0,0.176,0.022,0.344,0.067,0.504c0.046,0.16,0.114,0.298,0.206,0.414
				c0.091,0.119,0.206,0.212,0.341,0.281c0.136,0.068,0.293,0.101,0.469,0.101c0.185,0,0.345-0.035,0.483-0.105
				c0.136-0.07,0.252-0.168,0.345-0.287c0.091-0.122,0.159-0.263,0.205-0.415c0.045-0.156,0.067-0.32,0.067-0.492
				c0-0.169-0.022-0.332-0.067-0.488c-0.046-0.156-0.114-0.295-0.205-0.415c-0.093-0.121-0.209-0.216-0.345-0.286
				C67.292,61.66,67.132,61.626,66.947,61.626z"/>
			<path fill="#FFFFFF" d="M69.161,62.173h0.017c0.027-0.097,0.079-0.189,0.149-0.276c0.075-0.087,0.162-0.162,0.268-0.226
				c0.104-0.062,0.219-0.11,0.347-0.143c0.127-0.035,0.26-0.05,0.396-0.046v0.224c-0.118-0.016-0.253-0.002-0.401,0.035
				c-0.151,0.041-0.296,0.128-0.434,0.262c-0.057,0.059-0.104,0.115-0.145,0.17c-0.042,0.054-0.075,0.116-0.104,0.184
				c-0.025,0.067-0.049,0.141-0.062,0.223c-0.018,0.083-0.026,0.181-0.03,0.296v1.652h-0.225v-3.025h0.225V62.173z"/>
			<path fill="#FFFFFF" d="M70.361,63.016c0-0.217,0.03-0.42,0.092-0.61c0.061-0.192,0.15-0.36,0.268-0.504
				c0.117-0.146,0.264-0.261,0.436-0.344c0.173-0.085,0.371-0.127,0.595-0.127c0.225,0,0.422,0.042,0.596,0.127
				c0.171,0.083,0.315,0.198,0.436,0.344c0.117,0.144,0.206,0.312,0.269,0.504c0.061,0.19,0.091,0.394,0.091,0.61
				c0,0.214-0.03,0.42-0.091,0.612c-0.062,0.191-0.151,0.359-0.269,0.502c-0.12,0.143-0.265,0.257-0.436,0.343
				c-0.174,0.085-0.371,0.127-0.596,0.127c-0.224,0-0.422-0.042-0.595-0.127c-0.172-0.086-0.318-0.2-0.436-0.343
				s-0.207-0.311-0.268-0.502C70.392,63.436,70.361,63.229,70.361,63.016z M70.585,63.016c0,0.179,0.026,0.352,0.077,0.52
				c0.052,0.168,0.126,0.315,0.225,0.444c0.098,0.131,0.22,0.233,0.364,0.307c0.144,0.079,0.312,0.118,0.5,0.118
				c0.188,0,0.355-0.039,0.501-0.118c0.145-0.073,0.266-0.176,0.365-0.307c0.096-0.129,0.172-0.276,0.224-0.444
				c0.051-0.168,0.075-0.341,0.075-0.52c0-0.182-0.024-0.357-0.075-0.522c-0.052-0.168-0.128-0.313-0.224-0.443
				c-0.1-0.129-0.221-0.235-0.365-0.311c-0.146-0.076-0.313-0.113-0.501-0.113c-0.188,0-0.356,0.037-0.5,0.113
				c-0.145,0.075-0.267,0.182-0.364,0.311c-0.099,0.13-0.173,0.275-0.225,0.443C70.611,62.658,70.585,62.834,70.585,63.016z"/>
			<path fill="#FFFFFF" d="M73.664,61.502h0.225v0.646h0.011c0.04-0.111,0.096-0.214,0.17-0.302
				c0.071-0.091,0.156-0.165,0.251-0.229c0.097-0.062,0.202-0.109,0.316-0.139c0.113-0.032,0.229-0.048,0.347-0.048
				c0.177,0,0.328,0.021,0.45,0.064c0.124,0.043,0.227,0.101,0.304,0.171c0.079,0.07,0.141,0.148,0.186,0.239
				c0.046,0.089,0.077,0.176,0.097,0.268c0.021,0.092,0.032,0.178,0.036,0.263c0.003,0.086,0.005,0.159,0.005,0.22v1.872h-0.224
				v-1.912c0-0.076-0.005-0.169-0.018-0.283c-0.012-0.113-0.047-0.224-0.103-0.326c-0.057-0.106-0.145-0.194-0.259-0.27
				c-0.116-0.073-0.276-0.11-0.479-0.11c-0.174,0-0.329,0.029-0.46,0.092c-0.133,0.064-0.249,0.152-0.343,0.265
				c-0.095,0.111-0.166,0.244-0.215,0.4c-0.049,0.155-0.073,0.326-0.073,0.508v1.637h-0.225V61.502z"/>
			<path fill="#FFFFFF" d="M76.803,63.045v0.036c0,0.176,0.023,0.344,0.071,0.506c0.047,0.162,0.117,0.304,0.208,0.422
				c0.093,0.123,0.21,0.218,0.349,0.289c0.141,0.072,0.303,0.107,0.487,0.107c0.303,0,0.544-0.081,0.72-0.24
				c0.179-0.158,0.299-0.378,0.366-0.662h0.224c-0.067,0.353-0.208,0.623-0.431,0.812c-0.222,0.188-0.516,0.284-0.883,0.284
				c-0.224,0-0.417-0.042-0.584-0.122c-0.166-0.08-0.307-0.191-0.418-0.329c-0.113-0.14-0.195-0.304-0.251-0.496
				c-0.055-0.188-0.082-0.395-0.082-0.613c0-0.213,0.027-0.416,0.086-0.609c0.058-0.195,0.142-0.367,0.256-0.514
				c0.113-0.148,0.257-0.264,0.427-0.351c0.171-0.092,0.371-0.135,0.603-0.135c0.213,0,0.4,0.038,0.563,0.118
				c0.162,0.079,0.3,0.186,0.409,0.321c0.108,0.136,0.192,0.294,0.251,0.471c0.055,0.181,0.085,0.369,0.085,0.575
				c0,0.019-0.002,0.04-0.005,0.066c0,0.027-0.003,0.046-0.003,0.062H76.803z M79.028,62.851c-0.006-0.166-0.036-0.322-0.082-0.468
				c-0.049-0.148-0.119-0.275-0.211-0.389c-0.092-0.111-0.203-0.203-0.336-0.269s-0.282-0.1-0.452-0.1
				c-0.181,0-0.34,0.034-0.477,0.103c-0.139,0.068-0.255,0.159-0.348,0.271c-0.095,0.11-0.167,0.243-0.222,0.392
				c-0.049,0.147-0.079,0.302-0.093,0.459H79.028z"/>
			<path fill="#FFFFFF" d="M82.271,61.502v2.868c0,0.166-0.019,0.331-0.058,0.492c-0.04,0.157-0.107,0.298-0.202,0.421
				c-0.096,0.121-0.23,0.217-0.396,0.289c-0.168,0.076-0.384,0.109-0.64,0.109c-0.162,0-0.313-0.015-0.454-0.052
				c-0.14-0.032-0.264-0.084-0.369-0.157c-0.106-0.071-0.189-0.17-0.257-0.288c-0.064-0.119-0.101-0.268-0.108-0.445h0.225
				c0.013,0.135,0.044,0.248,0.1,0.341c0.056,0.095,0.128,0.173,0.215,0.233c0.089,0.06,0.188,0.104,0.298,0.133
				c0.11,0.028,0.227,0.043,0.354,0.043c0.207,0,0.38-0.033,0.521-0.096c0.138-0.064,0.25-0.145,0.33-0.244
				c0.084-0.103,0.141-0.214,0.176-0.343c0.032-0.128,0.05-0.255,0.05-0.385v-0.693h-0.018c-0.105,0.225-0.248,0.393-0.433,0.511
				c-0.182,0.12-0.4,0.177-0.66,0.177c-0.224,0-0.416-0.036-0.577-0.113c-0.165-0.078-0.298-0.183-0.406-0.318
				c-0.108-0.138-0.188-0.295-0.241-0.474c-0.053-0.182-0.079-0.379-0.079-0.59c0-0.201,0.026-0.391,0.086-0.57
				c0.057-0.181,0.14-0.341,0.25-0.476c0.11-0.136,0.246-0.243,0.409-0.323c0.162-0.083,0.352-0.121,0.562-0.121
				c0.239,0,0.462,0.062,0.662,0.184c0.203,0.12,0.348,0.293,0.434,0.518h0.012v-0.63H82.271z M80.947,61.626
				c-0.183,0-0.343,0.037-0.479,0.11c-0.134,0.075-0.247,0.171-0.334,0.296c-0.09,0.121-0.157,0.26-0.201,0.415
				c-0.048,0.154-0.067,0.312-0.067,0.474c0,0.176,0.02,0.344,0.067,0.504c0.044,0.16,0.113,0.298,0.206,0.414
				c0.092,0.119,0.206,0.212,0.341,0.281c0.136,0.068,0.291,0.101,0.468,0.101c0.186,0,0.346-0.035,0.481-0.105
				c0.141-0.07,0.255-0.168,0.346-0.287c0.093-0.122,0.161-0.263,0.207-0.415c0.046-0.156,0.067-0.32,0.067-0.492
				c0-0.169-0.021-0.332-0.067-0.488s-0.114-0.295-0.207-0.415c-0.091-0.121-0.205-0.216-0.346-0.286
				C81.293,61.66,81.133,61.626,80.947,61.626z"/>
			<path fill="#FFFFFF" d="M82.795,63.016c0-0.217,0.031-0.42,0.094-0.61c0.06-0.192,0.149-0.36,0.266-0.504
				c0.119-0.146,0.263-0.261,0.437-0.344c0.173-0.085,0.37-0.127,0.594-0.127c0.225,0,0.422,0.042,0.595,0.127
				c0.174,0.083,0.318,0.198,0.437,0.344c0.119,0.144,0.208,0.312,0.268,0.504c0.061,0.19,0.092,0.394,0.092,0.61
				c0,0.214-0.031,0.42-0.092,0.612c-0.06,0.191-0.148,0.359-0.268,0.502c-0.118,0.143-0.263,0.257-0.437,0.343
				c-0.173,0.085-0.37,0.127-0.595,0.127c-0.224,0-0.421-0.042-0.594-0.127c-0.174-0.086-0.317-0.2-0.437-0.343
				c-0.116-0.143-0.206-0.311-0.266-0.502C82.826,63.436,82.795,63.229,82.795,63.016z M83.019,63.016
				c0,0.179,0.026,0.352,0.078,0.52c0.05,0.168,0.125,0.315,0.223,0.444c0.098,0.131,0.22,0.233,0.365,0.307
				c0.145,0.079,0.312,0.119,0.5,0.119c0.189,0,0.354-0.04,0.501-0.119c0.146-0.073,0.268-0.176,0.365-0.307
				c0.098-0.129,0.173-0.276,0.225-0.444c0.05-0.168,0.076-0.341,0.076-0.52c0-0.182-0.026-0.357-0.076-0.522
				c-0.052-0.168-0.127-0.313-0.225-0.443c-0.098-0.129-0.22-0.235-0.365-0.311c-0.146-0.076-0.312-0.113-0.501-0.113
				c-0.188,0-0.355,0.037-0.5,0.113c-0.146,0.075-0.268,0.182-0.365,0.311c-0.098,0.13-0.173,0.275-0.223,0.443
				C83.045,62.658,83.019,62.834,83.019,63.016z"/>
			<path fill="#FFFFFF" d="M88.377,62.438c-0.013-0.135-0.046-0.252-0.103-0.354c-0.058-0.102-0.13-0.188-0.22-0.254
				c-0.092-0.067-0.197-0.119-0.316-0.152c-0.119-0.038-0.247-0.053-0.385-0.053c-0.19,0-0.355,0.037-0.501,0.113
				c-0.145,0.075-0.268,0.181-0.366,0.306c-0.098,0.128-0.17,0.273-0.223,0.438c-0.051,0.161-0.076,0.328-0.076,0.503
				c0,0.203,0.023,0.392,0.069,0.563c0.048,0.173,0.122,0.321,0.219,0.451c0.1,0.126,0.222,0.226,0.365,0.297
				c0.146,0.072,0.315,0.107,0.513,0.107c0.142,0,0.271-0.024,0.391-0.072c0.121-0.047,0.226-0.112,0.317-0.193
				c0.094-0.083,0.17-0.182,0.229-0.299c0.058-0.113,0.096-0.241,0.117-0.379h0.225c-0.024,0.182-0.073,0.342-0.148,0.482
				c-0.075,0.142-0.169,0.261-0.282,0.358c-0.114,0.095-0.243,0.17-0.39,0.221c-0.145,0.05-0.298,0.076-0.458,0.076
				c-0.247,0-0.458-0.045-0.634-0.132c-0.174-0.088-0.319-0.209-0.429-0.357c-0.112-0.148-0.195-0.32-0.249-0.516
				c-0.052-0.194-0.076-0.397-0.076-0.608c0-0.21,0.028-0.415,0.089-0.603c0.06-0.188,0.15-0.352,0.267-0.495
				c0.119-0.141,0.264-0.252,0.437-0.334c0.173-0.084,0.371-0.124,0.596-0.124c0.165,0,0.317,0.021,0.461,0.062
				c0.144,0.041,0.271,0.104,0.384,0.187c0.11,0.082,0.203,0.188,0.274,0.315c0.068,0.129,0.113,0.274,0.128,0.444H88.377z"/>
			<path fill="#FFFFFF" d="M89.206,60.931v-0.608h0.225v0.608H89.206z M89.206,64.527v-3.025h0.225v3.025H89.206z"/>
			<path fill="#FFFFFF" d="M90.003,63.016c0-0.217,0.03-0.42,0.092-0.61c0.061-0.192,0.149-0.36,0.267-0.504
				c0.116-0.146,0.263-0.261,0.436-0.344c0.173-0.085,0.371-0.127,0.596-0.127c0.223,0,0.423,0.042,0.594,0.127
				c0.173,0.083,0.317,0.198,0.437,0.344c0.116,0.144,0.205,0.312,0.268,0.504c0.061,0.19,0.092,0.394,0.092,0.61
				c0,0.214-0.031,0.42-0.092,0.612c-0.062,0.191-0.151,0.359-0.268,0.502c-0.119,0.143-0.264,0.257-0.437,0.343
				c-0.171,0.085-0.371,0.127-0.594,0.127c-0.225,0-0.423-0.042-0.596-0.127c-0.173-0.086-0.319-0.2-0.436-0.343
				c-0.117-0.143-0.206-0.311-0.267-0.502C90.033,63.436,90.003,63.229,90.003,63.016z M90.228,63.016
				c0,0.179,0.024,0.352,0.075,0.52c0.052,0.168,0.126,0.315,0.224,0.444c0.098,0.131,0.221,0.233,0.365,0.307
				c0.146,0.079,0.312,0.119,0.501,0.119c0.188,0,0.355-0.04,0.499-0.119c0.146-0.073,0.268-0.176,0.365-0.307
				c0.101-0.129,0.173-0.276,0.225-0.444c0.051-0.168,0.076-0.341,0.076-0.52c0-0.182-0.025-0.357-0.076-0.522
				c-0.052-0.168-0.124-0.313-0.225-0.443c-0.098-0.129-0.219-0.235-0.365-0.311c-0.144-0.076-0.312-0.113-0.499-0.113
				c-0.188,0-0.354,0.037-0.501,0.113c-0.145,0.075-0.268,0.182-0.365,0.311c-0.098,0.13-0.172,0.275-0.224,0.443
				C90.252,62.658,90.228,62.834,90.228,63.016z"/>
		</g>
	</g>
	<g>
		<path fill="#FFFFFF" d="M28.671,15.038l-4.187-7.249C15.799,12.926,9.315,20.396,5.366,28.947h9.427
			C18.071,23.384,22.752,18.557,28.671,15.038z"/>
		<path fill="#FFFFFF" d="M29.556,14.518C42.02,7.532,56.71,8.013,68.396,14.534l4.183-7.24C58.387-0.667,40.514-1.257,25.373,7.274
			L29.556,14.518z"/>
		<path fill="#FFFFFF" d="M69.283,15.053c5.559,3.293,10.395,7.964,13.901,13.894h9.441c-0.598-1.286-1.252-2.56-1.976-3.813
			C86.364,17.71,80.375,11.875,73.469,7.806L69.283,15.053z"/>
		<path fill="#FFFFFF" d="M28.679,83.329c-5.558-3.293-10.391-7.963-13.901-13.896h-9.44c0.599,1.288,1.252,2.563,1.975,3.816
			c4.287,7.422,10.275,13.257,17.181,17.326L28.679,83.329z"/>
		<path fill="#FFFFFF" d="M68.406,83.864c-12.463,6.985-27.153,6.505-38.84-0.017l-4.181,7.24
			c14.191,7.962,32.067,8.551,47.206,0.021L68.406,83.864z"/>
		<path fill="#FFFFFF" d="M69.294,83.344l4.186,7.251c8.685-5.139,15.168-12.608,19.118-21.16h-9.427
			C79.893,74.998,75.211,79.825,69.294,83.344z"/>
	</g>
</g>
</svg>
